<svg width="40" height="40" viewBox="0 0 40 40" fill="none" xmlns="http://www.w3.org/2000/svg">
<g clip-path="url(#clip0_12:157)">
<path d="M39.3713 24.8687C36.7001 35.5831 25.8482 42.1037 15.1325 39.4318C4.42134 36.7607 -2.09923 25.9081 0.573092 15.1946C3.24306 4.47899 14.095 -2.04207 24.8073 0.629077C35.5222 3.30022 42.0424 14.154 39.371 24.8689L39.3712 24.8687H39.3713Z" fill="#F7931A"/>
<path d="M28.8187 17.1525C29.2168 14.4909 27.1905 13.0603 24.4196 12.1058L25.3185 8.50052L23.1238 7.95366L22.2488 11.4641C21.6718 11.3202 21.0793 11.1846 20.4904 11.0502L21.3718 7.51659L19.1785 6.96973L18.2791 10.5739C17.8017 10.4652 17.3327 10.3577 16.8778 10.2445L16.8803 10.2332L13.8538 9.47742L13.27 11.8215C13.27 11.8215 14.8983 12.1947 14.8639 12.2177C15.7527 12.4395 15.9134 13.0278 15.8867 13.4941L14.8628 17.6014C14.924 17.617 15.0033 17.6394 15.0909 17.6746C15.0177 17.6565 14.9398 17.6366 14.859 17.6173L13.4238 23.371C13.3152 23.641 13.0395 24.0462 12.4181 23.8924C12.4401 23.9242 10.823 23.4943 10.823 23.4943L9.7334 26.0065L12.5894 26.7184C13.1207 26.8517 13.6414 26.9911 14.1541 27.1222L13.2459 30.7689L15.4381 31.3157L16.3375 27.7078C16.9363 27.8703 17.5175 28.0203 18.0864 28.1616L17.1901 31.7526L19.3849 32.2995L20.2929 28.6596C24.0353 29.3679 26.8493 29.0823 28.0337 25.6974C28.9881 22.9721 27.9862 21.4001 26.0174 20.375C27.4514 20.0443 28.5315 19.1011 28.8195 17.1528L28.8188 17.1523L28.8187 17.1525ZM23.8044 24.1839C23.1262 26.9092 18.5376 25.436 17.0499 25.0665L18.2551 20.2353C19.7427 20.6067 24.5133 21.3416 23.8045 24.1839H23.8044ZM24.4831 17.113C23.8644 19.592 20.0453 18.3326 18.8064 18.0237L19.8991 13.6421C21.138 13.9509 25.1277 14.5273 24.4833 17.113H24.4831Z" fill="white"/>
</g>
<defs>
<clipPath id="clip0_12:157">
<rect width="40" height="40" fill="white"/>
</clipPath>
</defs>
</svg>
