<svg width="40" height="40" viewBox="0 0 40 40" fill="none" xmlns="http://www.w3.org/2000/svg">
<circle cx="20" cy="20" r="20" fill="#272A48"/>
<path d="M20.05 7.01376V7.02669C20.0629 7.09132 20.0629 7.16889 20.0629 7.24645V16.5672C20.05 16.6189 20.0112 16.6318 19.9724 16.6577C19.701 16.787 19.4424 16.9033 19.1709 17.0196C18.796 17.1877 18.4082 17.3687 18.0333 17.5367L16.6759 18.1573C16.301 18.3253 15.9261 18.4934 15.5642 18.6614C15.1246 18.8683 14.6722 19.0622 14.2326 19.269C13.8577 19.4371 13.4828 19.6181 13.095 19.7861C12.7847 19.9283 12.4745 20.0576 12.1772 20.1998C12.1513 20.2127 12.1254 20.2257 12.0996 20.2257C12.0867 20.2257 12.0867 20.2257 12.0737 20.2127L12.4228 19.631C13.095 18.5192 13.7543 17.4204 14.4265 16.3086C15.1375 15.1193 15.8615 13.93 16.5725 12.7406C17.2318 11.6418 17.904 10.543 18.5633 9.44413C19.0417 8.64262 19.5329 7.84112 20.0112 7.03961C20.0241 7.01376 20.0371 7.00083 20.0371 6.97498H20.05C20.0371 6.9879 20.05 7.00083 20.05 7.01376Z" fill="#8A92B2"/>
<path d="M27.9875 20.21L28.0004 20.2229L26.1001 21.3476L20.1276 24.8768C20.1017 24.8898 20.0759 24.9027 20.063 24.9156C20.0242 24.9156 20.0242 24.8768 20.0242 24.8639V24.7476V16.7584C20.0242 16.7196 20.0242 16.6679 20.0371 16.6291C20.05 16.5774 20.0888 16.5903 20.1276 16.6032C20.2956 16.6808 20.4766 16.7584 20.6447 16.8359C21.1489 17.0686 21.653 17.3013 22.1572 17.5211C22.5967 17.715 23.0234 17.9218 23.4629 18.1158C23.9024 18.3097 24.342 18.5165 24.7815 18.7104C25.1564 18.8785 25.5442 19.0595 25.9191 19.2275C26.294 19.3956 26.6818 19.5766 27.0567 19.7446C27.3541 19.8739 27.6514 20.0161 27.9487 20.1454C27.9487 20.1842 27.9617 20.1971 27.9875 20.21Z" fill="#454A75"/>
<path d="M20.0493 32.9454C20.0493 32.9583 20.0363 32.9712 20.0363 32.9841H20.0234C20.0234 32.9583 19.9976 32.9454 19.9846 32.9195C19.1831 31.7948 18.3816 30.6572 17.5801 29.5325C16.7657 28.3819 15.9383 27.2185 15.1239 26.0679C14.3353 24.9562 13.5338 23.8315 12.7452 22.7197C12.5384 22.4224 12.3315 22.138 12.1247 21.8406C12.1118 21.8148 12.0989 21.8018 12.073 21.7631C12.1118 21.7631 12.1376 21.7889 12.1506 21.8018C13.2753 22.4611 14.387 23.1204 15.5117 23.7798C16.8045 24.5425 18.0843 25.3052 19.377 26.0679L20.0363 26.4557C20.0622 26.4816 20.0622 26.5075 20.0622 26.5333V32.7644C20.0622 32.829 20.0622 32.8936 20.0493 32.9454Z" fill="#8A92B2"/>
<path d="M12.0603 20.2372V20.2243C12.474 20.0433 12.8747 19.8494 13.2884 19.6684C13.8184 19.4228 14.3485 19.1901 14.8785 18.9445C15.2793 18.7635 15.6929 18.5696 16.0937 18.3886C16.6883 18.1171 17.2701 17.8586 17.8648 17.5871C18.2655 17.4061 18.6663 17.2251 19.0799 17.0312C19.3643 16.9019 19.6617 16.7727 19.9461 16.6434C19.9719 16.6305 20.0107 16.6175 20.0236 16.5917C20.0366 16.5917 20.0366 16.6046 20.0236 16.6175V24.8265C20.0236 24.8653 20.0107 24.9041 20.0366 24.9299C20.0107 24.9687 19.9849 24.9299 19.9719 24.917C19.8556 24.8523 19.7392 24.7877 19.6229 24.7101C17.1279 23.2364 14.6199 21.7497 12.1249 20.276C12.112 20.2631 12.0862 20.2502 12.0603 20.2372Z" fill="#62688F"/>
<path d="M27.9614 21.7631H27.9744C27.9744 21.7889 27.9485 21.8148 27.9356 21.8406C25.5569 25.1889 23.1782 28.55 20.7996 31.8982C20.554 32.2473 20.2954 32.5963 20.0498 32.9454C20.0369 32.9324 20.0369 32.9195 20.0369 32.9066V32.829V26.5592V26.4428C20.5798 26.1196 21.1098 25.8094 21.6528 25.4862C23.7471 24.2451 25.8413 23.017 27.9226 21.776C27.9356 21.7889 27.9485 21.776 27.9614 21.7631Z" fill="#62688F"/>
<path d="M20.0366 16.6179V16.5921V16.5145V7.12913C20.0366 7.09035 20.0237 7.06449 20.0495 7.02571C22.6738 11.3823 25.2981 15.7259 27.9095 20.0825C27.9353 20.1213 27.9741 20.173 27.987 20.2247C27.806 20.1601 27.638 20.0696 27.4699 19.992C27.2631 19.9015 27.0433 19.7981 26.8365 19.7076C26.7072 19.643 26.565 19.5912 26.4357 19.5266C26.2159 19.4232 25.9962 19.3327 25.7764 19.2293C25.6471 19.1776 25.5179 19.1129 25.3886 19.0483L24.5354 18.6605C24.3932 18.5958 24.251 18.5312 24.0958 18.4666L23.4753 18.1951C23.346 18.1434 23.2168 18.0787 23.0875 18.0141L22.2343 17.6263C22.0921 17.5616 21.9499 17.497 21.7947 17.4324L21.1742 17.1609C21.032 17.0962 20.9027 17.0316 20.7605 16.967C20.5149 16.8506 20.2693 16.7343 20.0107 16.6308C20.0495 16.6179 20.0366 16.6179 20.0366 16.6179Z" fill="#62688F"/>
</svg>
