<svg width="40" height="40" viewBox="0 0 40 40" fill="none" xmlns="http://www.w3.org/2000/svg">
<circle cx="20" cy="20" r="20" fill="#054854"/>
<path d="M14.8651 10.4512C20.5144 10.4495 26.164 10.4495 31.8139 10.4512C31.8157 12.2773 31.8157 14.103 31.8139 15.9285C26.1645 15.9302 20.5149 15.9302 14.8651 15.9285C14.8633 14.1024 14.8633 12.2767 14.8651 10.4512Z" fill="#02A6C2"/>
<path d="M8.1919 17.9892C10.0145 17.9798 11.8374 17.9798 13.6606 17.9892C13.6701 19.8118 13.6701 21.6347 13.6606 23.4579C11.8375 23.4673 10.0146 23.4674 8.1919 23.4584C8.18245 21.6355 8.18245 19.8124 8.1919 17.9892Z" fill="#5FCADE"/>
<path d="M14.8689 17.9909C18.9465 17.9822 23.0237 17.9822 27.1007 17.9909C27.1094 19.8135 27.1094 21.6364 27.1007 23.4596C23.0233 23.4681 18.946 23.4681 14.8689 23.4596C14.8604 21.637 14.8604 19.814 14.8689 17.9909Z" fill="#5FCADE"/>
<path d="M14.8743 25.5291C16.6938 25.5093 18.513 25.5093 20.3319 25.5291C20.3508 27.3475 20.3511 29.1667 20.3327 30.9868C18.5132 31.0047 16.6941 31.0044 14.8753 30.9858C14.8564 29.1676 14.856 27.3487 14.8743 25.5291Z" fill="#ABEBF4"/>
</svg>
