<svg width="40" height="40" viewBox="0 0 40 40" fill="none" xmlns="http://www.w3.org/2000/svg">
<path d="M28.2516 14.9207C28.1116 15.0607 27.9236 15.1407 27.7276 15.1407H9.1476C8.4916 15.1407 8.1596 14.3407 8.6156 13.8647L11.6636 10.7087C11.8036 10.5647 11.9956 10.4807 12.1956 10.4807H30.8436C31.5036 10.4807 31.8356 11.2887 31.3676 11.7647L28.2516 14.9207ZM28.2516 29.0247C28.1116 29.1607 27.9236 29.2407 27.7276 29.2407H9.1476C8.4916 29.2407 8.1596 28.4607 8.6156 27.9967L11.6636 24.9167C11.8036 24.7767 11.9956 24.6967 12.1956 24.6967H30.8436C31.5036 24.6967 31.8356 25.4847 31.3676 25.9487L28.2516 29.0247ZM27.7276 17.5887C27.9236 17.5887 28.1116 17.6647 28.2516 17.8047L31.3676 20.8847C31.8356 21.3447 31.5036 22.1367 30.8436 22.1367H12.1956C11.9956 22.1367 11.8036 22.0567 11.6636 21.9167L8.6156 18.8367C8.1556 18.3727 8.4876 17.5927 9.1476 17.5927L27.7276 17.5887Z" fill="#00FFAD"/>
<path d="M20 0C31.044 0 40 8.956 40 20C40 31.044 31.044 40 20 40C8.956 40 0 31.044 0 20C0 8.956 8.956 0 20 0Z" fill="black"/>
<path fill-rule="evenodd" clip-rule="evenodd" d="M9.24811 18.0932H27.7561C27.9881 18.0932 28.2081 18.1852 28.3681 18.3492L31.2961 21.2972C31.8361 21.8412 31.4521 22.7692 30.6841 22.7692H12.1761C11.9441 22.7692 11.7241 22.6772 11.5641 22.5132L8.63611 19.5652C8.09211 19.0212 8.48011 18.0932 9.24811 18.0932ZM8.63611 14.1852L11.5641 11.2372C11.7281 11.0732 11.9481 10.9812 12.1761 10.9812H30.6801C31.4481 10.9812 31.8361 11.9092 31.2921 12.4532L28.3681 15.4012C28.2041 15.5652 27.9841 15.6572 27.7561 15.6572H9.24811C8.48011 15.6572 8.09211 14.7292 8.63611 14.1852ZM31.2921 26.6772L28.3641 29.6252C28.2001 29.7892 27.9801 29.8812 27.7521 29.8812H9.24811C8.48011 29.8812 8.09211 28.9532 8.63611 28.4092L11.5641 25.4612C11.7281 25.2972 11.9481 25.2052 12.1761 25.2052H30.6801C31.4481 25.2052 31.8361 26.1332 31.2921 26.6772Z" fill="url(#paint0_linear_267:603)"/>
<defs>
<linearGradient id="paint0_linear_267:603" x1="9.70091" y1="30.6944" x2="30.2273" y2="10.168" gradientUnits="userSpaceOnUse">
<stop stop-color="#CB4EE8"/>
<stop offset="1" stop-color="#10F4B1"/>
</linearGradient>
</defs>
</svg>
