<svg xmlns="http://www.w3.org/2000/svg" width="960" height="640" viewBox="0 0 960 640" version="1.1">
	<path d="M 0 320.001 L 0 640.002 480.250 639.751 L 960.500 639.500 960.752 319.750 L 961.003 0 480.502 0 L 0 0 0 320.001 M 0.494 320.500 C 0.494 496.500, 0.609 568.351, 0.750 480.169 C 0.891 391.987, 0.891 247.987, 0.750 160.169 C 0.609 72.351, 0.494 144.500, 0.494 320.500 M 761.954 109.086 C 761.340 110.233, 761.026 111.360, 761.257 111.590 C 761.487 111.820, 762.189 110.882, 762.816 109.504 C 764.194 106.480, 763.523 106.154, 761.954 109.086 M 757.600 117.100 C 756.613 118.771, 756.041 120.374, 756.329 120.662 C 756.617 120.950, 757.594 119.752, 758.500 118 C 760.640 113.861, 759.932 113.153, 757.600 117.100 M 752.989 125.250 C 751.899 127.037, 751.006 128.800, 751.004 129.167 C 751.002 129.534, 748.914 133.359, 746.365 137.667 C 743.815 141.975, 739.825 149.325, 737.498 154 C 735.171 158.675, 731.140 166.696, 728.541 171.824 C 725.941 176.952, 723.972 181.305, 724.165 181.499 C 724.359 181.692, 726.579 177.946, 729.098 173.175 C 731.618 168.404, 736.051 160, 738.948 154.500 C 741.846 149, 745.105 143.037, 746.190 141.250 C 747.275 139.463, 747.789 137.993, 747.332 137.985 C 746.874 137.976, 746.967 137.639, 747.537 137.235 C 748.734 136.388, 756.227 122, 755.472 122 C 755.196 122, 754.079 123.463, 752.989 125.250 M 721.459 185.067 C 721.096 185.653, 721.014 186.348, 721.276 186.610 C 721.538 186.872, 722.019 186.392, 722.345 185.543 C 723.021 183.781, 722.445 183.471, 721.459 185.067 M 717.459 193.067 C 717.096 193.653, 717.014 194.348, 717.276 194.610 C 717.538 194.872, 718.019 194.392, 718.345 193.543 C 719.021 191.781, 718.445 191.471, 717.459 193.067 M 694.660 236.250 C 693.897 237.488, 689.773 245.250, 685.495 253.500 C 681.217 261.750, 666.591 289.425, 652.993 315 C 639.394 340.575, 625.733 366.273, 622.634 372.108 C 619.535 377.942, 617 383.399, 617 384.236 C 617 385.072, 615.053 389.299, 612.672 393.628 C 608.247 401.677, 601.706 413.978, 591.470 433.500 C 578.815 457.636, 575 465.117, 575.004 465.793 C 575.009 466.744, 577.901 461.908, 582.056 454 C 583.935 450.425, 586.040 446.906, 586.734 446.180 C 587.429 445.454, 588.271 443.767, 588.607 442.430 C 588.942 441.094, 589.566 440, 589.992 440 C 590.418 440, 591.051 439.212, 591.399 438.250 C 592.602 434.923, 595 431.501, 595.962 431.738 C 596.493 431.869, 596.643 431.233, 596.294 430.324 C 595.832 429.119, 596.023 428.896, 597 429.500 C 597.933 430.077, 598.174 429.897, 597.795 428.909 C 597.496 428.128, 597.886 426.896, 598.663 426.170 C 599.865 425.047, 599.970 425.269, 599.369 427.665 C 598.708 430.298, 598.771 430.372, 600.337 428.806 C 601.258 427.885, 602.868 426.859, 603.914 426.527 C 606.095 425.835, 607.637 422.712, 606.057 422.186 C 604.752 421.751, 604.652 420, 605.933 420 C 606.446 420, 607.166 420.947, 607.533 422.105 C 608.164 424.091, 608.425 423.993, 612.180 420.355 C 617.364 415.332, 618.636 413.023, 616.853 411.873 C 615.818 411.205, 616.029 410.855, 617.750 410.383 C 618.987 410.044, 620 409.085, 620 408.251 C 620 407.418, 620.937 405.220, 622.082 403.368 L 624.163 400 621.582 400 C 620.162 400, 619 399.550, 619 399 C 619 398.450, 620.125 398, 621.500 398 C 622.991 398, 624 397.428, 624 396.582 C 624 395.802, 624.151 394.564, 624.336 393.832 C 624.521 393.099, 624.483 392.837, 624.253 393.250 C 624.022 393.663, 622.971 394, 621.917 394 C 619.788 394, 619.555 393.237, 621 391 C 621.613 390.051, 621.975 389.948, 621.985 390.719 C 621.993 391.418, 622.675 391.678, 623.584 391.329 C 624.535 390.964, 624.756 390.467, 624.137 390.084 C 623.570 389.734, 623.434 388.916, 623.835 388.268 C 624.296 387.520, 627.958 387.026, 633.825 386.919 C 640.771 386.793, 643.547 386.344, 644.929 385.125 C 645.943 384.231, 652.877 371.575, 660.338 357 C 690.604 297.875, 695.694 288.511, 697.735 288.200 C 699.391 287.947, 702.433 293.131, 716.807 320.700 C 726.213 338.740, 737.700 360.700, 742.334 369.500 L 750.760 385.500 764.401 385.778 C 775.698 386.009, 778.139 385.803, 778.609 384.577 C 778.928 383.745, 772.943 371.375, 764.928 356.299 C 735.988 301.870, 700.792 236.463, 699.789 235.250 C 698.221 233.354, 696.202 233.747, 694.660 236.250 M 201.200 257.200 C 200.289 258.111, 200 276.004, 200 331.618 C 200 371.888, 200.273 405.548, 200.607 406.418 C 201.147 407.827, 205.884 407.998, 243.857 407.983 C 289.868 407.964, 294.787 407.533, 305.617 402.575 C 317.570 397.103, 324.841 387.962, 327.614 374.922 C 331.796 355.255, 325.239 337.317, 310.867 329.109 L 306.004 326.332 310.037 323.091 C 324.824 311.207, 325.968 285.190, 312.368 270.064 C 306.828 263.903, 296.262 258.473, 287 257.029 C 277.339 255.522, 202.729 255.671, 201.200 257.200 M 356.773 256.900 C 356.073 257.120, 355.169 257.795, 354.765 258.400 C 353.887 259.715, 353.732 404.139, 354.607 406.418 C 355.147 407.826, 359.840 407.998, 397.357 407.983 C 443.537 407.964, 447.959 407.547, 459.536 402.130 C 474.475 395.139, 481.960 382.237, 481.988 363.432 C 482.012 347.232, 475.876 335.865, 463.268 328.749 L 459.035 326.360 463.406 323.279 C 466.596 321.031, 468.685 318.354, 471.139 313.370 C 474.308 306.932, 474.500 305.942, 474.500 296.021 C 474.500 286.718, 474.192 284.843, 471.840 279.825 C 468.322 272.321, 462.317 265.967, 455.252 262.274 C 444.519 256.662, 443.083 256.515, 398.773 256.507 C 376.374 256.503, 357.474 256.680, 356.773 256.900 M 484.250 256.682 C 483.563 256.949, 483 257.656, 483 258.253 C 483 258.851, 500.850 292.810, 522.666 333.718 C 556.451 397.067, 562.629 408.051, 564.328 407.798 C 565.852 407.570, 574.920 391.432, 602.705 339.500 C 646.431 257.772, 645.465 259.655, 644.685 257.623 C 644.158 256.247, 642.184 256, 631.723 256 C 623.360 256, 618.872 256.403, 617.801 257.250 C 616.931 257.938, 605.540 278.975, 592.487 304 C 579.434 329.025, 568.106 350.540, 567.314 351.811 C 563.948 357.212, 563.040 355.843, 536.912 306 C 523.217 279.875, 511.860 258.050, 511.674 257.500 C 511.331 256.489, 486.650 255.753, 484.250 256.682 M 226.200 279.200 C 225.358 280.042, 225 285.644, 225 298 C 225 310.356, 225.358 315.958, 226.200 316.800 C 228.092 318.692, 277.089 318.460, 283.596 316.527 C 288.960 314.934, 294.180 310.348, 295.939 305.685 C 297.710 300.986, 297.201 293.821, 294.750 288.970 C 292.060 283.644, 287.708 280.532, 280.914 279.075 C 273.729 277.534, 227.761 277.639, 226.200 279.200 M 381.250 278.975 C 379.039 279.919, 379 280.241, 379 297.386 C 379 306.984, 379.273 315.548, 379.607 316.418 C 380.139 317.805, 383.437 317.999, 406.357 317.994 C 434.085 317.989, 438.298 317.465, 443.751 313.350 C 448.416 309.829, 450.250 305.640, 450.250 298.500 C 450.250 289.360, 446.748 283.959, 438.486 280.358 C 435.115 278.888, 430.565 278.573, 409 278.317 C 394.183 278.141, 382.557 278.417, 381.250 278.975 M 226.250 341.133 C 225.333 342.062, 225 347.786, 225 362.618 C 225 373.738, 225.273 383.548, 225.607 384.418 C 226.141 385.810, 229.655 386, 254.791 386 C 286.154 386, 292.155 385.193, 297.475 380.261 C 303.341 374.821, 305.568 364.216, 302.884 354.500 C 301.541 349.641, 295.882 343.981, 290.448 342.064 C 284.871 340.096, 228.085 339.272, 226.250 341.133 M 380.250 341.125 C 379.333 342.060, 379 347.790, 379 362.618 C 379 373.738, 379.273 383.548, 379.607 384.418 C 380.140 385.808, 383.590 386, 408.058 386 C 437.398 386, 443.731 385.330, 449.198 381.645 C 454.694 377.942, 456.965 372.713, 456.984 363.718 C 457.002 354.956, 455.617 350.787, 451.359 346.789 C 445.401 341.194, 442.163 340.676, 410.500 340.245 C 387.896 339.937, 381.224 340.131, 380.250 341.125 M 619.269 387.693 C 620.242 387.947, 621.592 387.930, 622.269 387.656 C 622.946 387.382, 622.150 387.175, 620.500 387.195 C 618.850 387.215, 618.296 387.439, 619.269 387.693 M 614 415 C 614 415.550, 614.450 416, 615 416 C 615.550 416, 616 415.550, 616 415 C 616 414.450, 615.550 414, 615 414 C 614.450 414, 614 414.450, 614 415 M 599.872 422.750 C 598.629 424.336, 598.664 424.371, 600.250 423.128 C 601.916 421.821, 602.445 421, 601.622 421 C 601.415 421, 600.627 421.788, 599.872 422.750" stroke="none" fill="black" fill-rule="evenodd"/>
</svg>