<svg xmlns="http://www.w3.org/2000/svg" width="1786" height="1548" viewBox="0 0 1786 1548" version="1.1">
	<path d="M -0 774.001 L -0 1548.001 893.250 1547.751 L 1786.500 1547.500 1786.751 773.750 L 1787.001 0 893.501 0 L 0 0 -0 774.001 M 0.497 774.500 C 0.497 1200.200, 0.611 1374.500, 0.750 1161.832 C 0.889 949.165, 0.889 600.865, 0.750 387.832 C 0.611 174.800, 0.497 348.800, 0.497 774.500 M 1572.079 276.583 C 1572.127 277.748, 1572.364 277.985, 1572.683 277.188 C 1572.972 276.466, 1572.936 275.603, 1572.604 275.271 C 1572.272 274.939, 1572.036 275.529, 1572.079 276.583 M 1567.987 282.032 C 1567.296 283.700, 1567.016 285.350, 1567.365 285.699 C 1567.714 286.048, 1568 285.583, 1568 284.667 C 1568 283.750, 1568.398 283, 1568.883 283 C 1569.369 283, 1570.002 282.100, 1570.290 281 C 1571.105 277.882, 1569.387 278.652, 1567.987 282.032 M 1565 288.059 C 1565 288.641, 1565.450 288.840, 1566 288.500 C 1566.550 288.160, 1567 287.684, 1567 287.441 C 1567 287.198, 1566.550 287, 1566 287 C 1565.450 287, 1565 287.477, 1565 288.059 M 1558.543 298.931 C 1557.860 300.036, 1559.437 301.230, 1560.361 300.306 C 1561.311 299.355, 1561.134 298, 1560.059 298 C 1559.541 298, 1558.859 298.419, 1558.543 298.931 M 1555.128 305 C 1555.023 306.375, 1554.276 308.374, 1553.468 309.441 C 1552.661 310.509, 1552.030 312.309, 1552.068 313.441 C 1552.128 315.290, 1552.253 315.245, 1553.290 313 C 1553.925 311.625, 1554.828 310.228, 1555.297 309.895 C 1555.765 309.562, 1555.962 307.762, 1555.734 305.895 C 1555.428 303.383, 1555.270 303.150, 1555.128 305 M 1547.816 318.504 C 1547.189 319.882, 1546.978 321.311, 1547.348 321.681 C 1548.139 322.472, 1550.922 319.065, 1550.968 317.250 C 1551.023 315.088, 1549.007 315.891, 1547.816 318.504 M 1544.760 324.636 C 1544.467 325.661, 1543.901 327.293, 1543.502 328.261 C 1542.957 329.587, 1543.157 329.877, 1544.311 329.434 C 1546.336 328.657, 1547.214 326.204, 1546.148 324.300 C 1545.416 322.992, 1545.216 323.040, 1544.760 324.636 M 1538.644 335.906 C 1537.190 338.687, 1536 341.565, 1536 342.301 C 1536 343.038, 1534.722 345.071, 1533.160 346.821 C 1531.598 348.571, 1526.384 357.989, 1521.573 367.751 C 1516.762 377.513, 1512.414 386.175, 1511.910 387 C 1511.407 387.825, 1510.546 389.543, 1509.996 390.818 C 1509.447 392.093, 1507.873 394.611, 1506.499 396.413 C 1505.124 398.215, 1504 400.632, 1504 401.785 C 1504 402.938, 1503.604 404.127, 1503.121 404.425 C 1502.637 404.724, 1501.993 405.917, 1501.690 407.076 C 1501.161 409.099, 1501.217 409.114, 1503.070 407.437 C 1504.131 406.476, 1505 404.743, 1505 403.585 C 1505 402.427, 1506.125 400.266, 1507.500 398.783 C 1508.875 397.301, 1510 395.609, 1510 395.024 C 1510 394.439, 1511.125 392.178, 1512.500 390 C 1513.875 387.822, 1515 385.356, 1515 384.520 C 1515 383.684, 1515.450 383, 1516 383 C 1516.550 383, 1517 382.325, 1517 381.500 C 1517 380.675, 1517.441 380, 1517.981 380 C 1518.520 380, 1519.244 378.875, 1519.589 377.500 C 1519.934 376.125, 1520.618 375, 1521.108 375 C 1521.599 375, 1522 374.316, 1522 373.480 C 1522 372.644, 1523.125 370.178, 1524.500 368 C 1525.875 365.822, 1527 363.624, 1527 363.116 C 1527 362.608, 1528.631 359.336, 1530.625 355.846 C 1538.398 342.236, 1542.733 333.185, 1542.025 332.040 C 1541.561 331.289, 1540.312 332.717, 1538.644 335.906 M 1499 412.500 C 1499 413.325, 1499.177 414, 1499.393 414 C 1499.609 414, 1500.045 413.325, 1500.362 412.500 C 1500.678 411.675, 1500.501 411, 1499.969 411 C 1499.436 411, 1499 411.675, 1499 412.500 M 1497.079 416.583 C 1497.127 417.748, 1497.364 417.985, 1497.683 417.188 C 1497.972 416.466, 1497.936 415.603, 1497.604 415.271 C 1497.272 414.939, 1497.036 415.529, 1497.079 416.583 M 1494.079 422.583 C 1494.127 423.748, 1494.364 423.985, 1494.683 423.188 C 1494.972 422.466, 1494.936 421.603, 1494.604 421.271 C 1494.272 420.939, 1494.036 421.529, 1494.079 422.583 M 1492.158 426 C 1492.158 427.375, 1492.385 427.938, 1492.662 427.250 C 1492.940 426.563, 1492.940 425.438, 1492.662 424.750 C 1492.385 424.063, 1492.158 424.625, 1492.158 426 M 1489 431.059 C 1489 432.191, 1489.450 432.840, 1490 432.500 C 1490.550 432.160, 1491 431.234, 1491 430.441 C 1491 429.648, 1490.550 429, 1490 429 C 1489.450 429, 1489 429.927, 1489 431.059 M 1486.531 435.293 C 1486.103 436.279, 1486.034 437.367, 1486.376 437.710 C 1487.392 438.725, 1488.211 437.299, 1487.743 435.328 C 1487.329 433.581, 1487.275 433.580, 1486.531 435.293 M 1479.651 448.468 C 1479.341 449.275, 1479.518 450.202, 1480.044 450.527 C 1480.570 450.852, 1481 450.191, 1481 449.059 C 1481 446.644, 1480.444 446.401, 1479.651 448.468 M 1417.814 566.750 C 1416.332 568.483, 1412.614 575.332, 1399.492 600.500 C 1395.764 607.650, 1388.220 622.050, 1382.727 632.500 C 1377.234 642.950, 1370.263 656.225, 1367.235 662 C 1364.207 667.775, 1360.497 674.750, 1358.990 677.500 C 1357.483 680.250, 1353.429 687.900, 1349.981 694.500 C 1346.533 701.100, 1342.492 708.750, 1341.002 711.500 C 1336.023 720.685, 1330.337 731.392, 1324.007 743.500 C 1320.556 750.100, 1316.955 756.850, 1316.005 758.500 C 1315.054 760.150, 1311.224 767.350, 1307.494 774.500 C 1303.763 781.650, 1299.484 789.750, 1297.985 792.500 C 1296.485 795.250, 1293.110 801.550, 1290.486 806.500 C 1287.861 811.450, 1284.483 817.750, 1282.979 820.500 C 1281.476 823.250, 1277.655 830.450, 1274.488 836.500 C 1271.322 842.550, 1267.492 849.750, 1265.978 852.500 C 1264.464 855.250, 1259.511 864.475, 1254.970 873 C 1250.430 881.525, 1245.155 891.425, 1243.247 895 C 1228.723 922.220, 1227 925.958, 1227 930.255 C 1227 932.645, 1226.574 935.027, 1226.054 935.550 C 1225.533 936.072, 1223.573 939.425, 1221.698 943 C 1219.823 946.575, 1217.169 951.525, 1215.801 954 C 1214.433 956.475, 1210.594 963.675, 1207.271 970 C 1203.947 976.325, 1199.529 984.650, 1197.453 988.500 C 1195.377 992.350, 1192.513 997.750, 1191.089 1000.500 C 1189.665 1003.250, 1188.162 1005.650, 1187.750 1005.833 C 1187.338 1006.017, 1187 1006.768, 1187 1007.502 C 1187 1009.223, 1183.731 1014.985, 1182.750 1014.994 C 1182.338 1014.997, 1182 1015.642, 1182 1016.427 C 1182 1017.212, 1180.376 1020.925, 1178.390 1024.677 C 1169.144 1042.154, 1163.351 1053.182, 1159.309 1061 C 1154.923 1069.485, 1145.853 1086.821, 1142.829 1092.500 C 1141.951 1094.150, 1140.403 1097.188, 1139.389 1099.250 C 1138.375 1101.313, 1137.198 1103, 1136.773 1103 C 1136.348 1103, 1136.052 1104.237, 1136.116 1105.750 C 1136.187 1107.442, 1136.408 1107.827, 1136.689 1106.750 C 1136.941 1105.787, 1137.512 1105, 1137.958 1105 C 1138.405 1105, 1140.124 1102.412, 1141.779 1099.250 C 1147.847 1087.652, 1151.392 1081.492, 1152.186 1081.167 C 1152.634 1080.983, 1153 1080.445, 1153 1079.970 C 1153 1079.496, 1154.575 1076.420, 1156.500 1073.135 C 1158.425 1069.851, 1160.008 1066.564, 1160.017 1065.832 C 1160.027 1065.099, 1161.152 1063.440, 1162.517 1062.145 C 1163.883 1060.850, 1165 1059.370, 1165 1058.856 C 1165 1058.342, 1166.575 1055.582, 1168.500 1052.724 C 1170.425 1049.865, 1172 1046.958, 1172 1046.263 C 1172 1045.569, 1172.450 1045, 1173 1045 C 1173.550 1045, 1174 1044.311, 1174 1043.469 C 1174 1042.626, 1174.675 1041.678, 1175.500 1041.362 C 1176.325 1041.045, 1177 1039.757, 1177 1038.500 C 1177 1037.243, 1177.675 1035.955, 1178.500 1035.638 C 1179.325 1035.322, 1180 1034.394, 1180 1033.577 C 1180 1032.760, 1181.125 1030.966, 1182.500 1029.591 C 1183.875 1028.216, 1185 1025.945, 1185 1024.545 C 1185 1023.145, 1185.450 1022, 1186 1022 C 1186.550 1022, 1187 1021.277, 1187 1020.394 C 1187 1019.511, 1188.098 1017.924, 1189.441 1016.868 C 1190.783 1015.812, 1192.164 1014.060, 1192.508 1012.974 C 1193.320 1010.416, 1195.618 1010.432, 1196.290 1013 C 1196.630 1014.300, 1196.320 1015, 1195.406 1015 C 1194.206 1015, 1193.540 1016.768, 1193.846 1019.143 C 1193.892 1019.497, 1192.595 1020.339, 1190.964 1021.015 C 1188.854 1021.889, 1188 1022.927, 1188 1024.621 C 1188 1025.930, 1188 1027.225, 1188 1027.500 C 1188 1027.775, 1188.225 1028, 1188.500 1028 C 1188.775 1028, 1188.973 1027.662, 1188.941 1027.250 C 1188.909 1026.838, 1189.921 1026.252, 1191.191 1025.950 C 1192.761 1025.575, 1193.464 1024.719, 1193.386 1023.274 C 1193.309 1021.823, 1194.023 1020.960, 1195.636 1020.555 C 1197.731 1020.029, 1198.674 1017.714, 1197.750 1015.365 C 1197.612 1015.015, 1198.563 1014.336, 1199.862 1013.855 C 1201.773 1013.148, 1202.142 1012.422, 1201.794 1010.053 C 1201.422 1007.517, 1201.599 1007.250, 1203.117 1008.062 C 1205.557 1009.368, 1206.633 1009.233, 1205.200 1007.800 C 1203.171 1005.771, 1203.874 1004.576, 1205.976 1006.479 C 1207.063 1007.462, 1207.758 1008.582, 1207.520 1008.967 C 1207.283 1009.352, 1207.743 1009.667, 1208.544 1009.667 C 1210.330 1009.667, 1210.397 1008.820, 1208.750 1007.078 C 1207.718 1005.986, 1207.893 1005.957, 1209.750 1006.913 C 1211.222 1007.670, 1212 1007.712, 1212 1007.035 C 1212 1006.466, 1211.550 1006, 1211 1006 C 1210.450 1006, 1210 1005.100, 1210 1004 C 1210 1001.868, 1211.979 1001.137, 1212.030 1003.250 C 1212.047 1003.938, 1212.542 1003.672, 1213.130 1002.661 C 1213.718 1001.649, 1213.985 999.703, 1213.724 998.335 C 1213.398 996.631, 1213.572 996.172, 1214.277 996.877 C 1215.680 998.280, 1219.325 996.290, 1218.637 994.496 C 1218.015 992.876, 1220.119 990.942, 1222.715 990.746 C 1224.164 990.637, 1224.625 989.745, 1224.741 986.828 C 1224.824 984.751, 1224.466 982.788, 1223.946 982.467 C 1222.322 981.463, 1222.802 975, 1224.500 975 C 1225.325 975, 1226 975.398, 1226 975.883 C 1226 976.369, 1227.013 976.960, 1228.250 977.196 C 1230.334 977.594, 1230.497 977.274, 1230.453 972.850 C 1230.428 970.223, 1230.018 967.719, 1229.543 967.287 C 1229.061 966.847, 1229.047 967.162, 1229.512 968 C 1230.172 969.191, 1229.948 969.162, 1228.422 967.861 C 1226.173 965.942, 1222 966.987, 1222 969.468 C 1222 970.310, 1221.498 971, 1220.885 971 C 1220.200 971, 1220.393 970.049, 1221.385 968.535 C 1222.273 967.180, 1223 965.155, 1223 964.035 C 1223 962.916, 1223.450 962, 1224 962 C 1224.879 962, 1225.368 963.285, 1225.174 965.083 C 1225.139 965.404, 1225.780 965.667, 1226.599 965.667 C 1227.417 965.667, 1227.875 965.118, 1227.618 964.447 C 1227.322 963.674, 1227.815 963.400, 1228.962 963.700 C 1229.959 963.961, 1231.073 963.690, 1231.439 963.099 C 1231.851 962.433, 1231.508 962.251, 1230.541 962.623 C 1229.405 963.058, 1229.147 962.781, 1229.596 961.611 C 1229.958 960.666, 1231.359 960, 1232.985 960 C 1234.508 960, 1236.373 959.239, 1237.128 958.308 C 1238.060 957.158, 1238.099 956.857, 1237.250 957.367 C 1236.563 957.780, 1236 957.641, 1236 957.059 C 1236 956.477, 1235.334 956, 1234.519 956 C 1233.705 956, 1232.757 954.878, 1232.412 953.507 C 1232.068 952.136, 1231.419 951.241, 1230.969 951.519 C 1230.519 951.797, 1230.005 951.264, 1229.826 950.334 C 1229.521 948.751, 1229.393 948.750, 1227.821 950.321 C 1225.473 952.670, 1224.709 952.412, 1226.134 949.750 C 1226.796 948.513, 1227.301 947.398, 1227.257 947.273 C 1227.212 947.148, 1227.397 946.199, 1227.667 945.164 C 1228.016 943.832, 1229.742 942.928, 1233.580 942.070 C 1237.272 941.243, 1239 940.365, 1239 939.315 C 1239 937.779, 1237.699 937.783, 1231.245 939.342 C 1229.268 939.820, 1229.118 939.647, 1230.030 937.944 C 1230.602 936.875, 1231.392 935.963, 1231.785 935.919 C 1235.842 935.458, 1237.843 935.098, 1239.750 934.487 C 1241.602 933.894, 1242 934.142, 1242 935.883 C 1242 937.048, 1242.450 938, 1243 938 C 1243.550 938, 1244 937.325, 1244 936.500 C 1244 935.305, 1245.574 934.979, 1251.750 934.897 C 1256.013 934.840, 1267.519 934.502, 1277.321 934.147 C 1293.507 933.559, 1295.250 933.322, 1296.321 931.557 C 1299.627 926.109, 1306.657 912.705, 1320.213 886 C 1328.449 869.775, 1335.596 856.073, 1336.094 855.550 C 1336.592 855.028, 1337 853.790, 1337 852.800 C 1337 851.810, 1337.338 850.996, 1337.750 850.992 C 1338.162 850.988, 1338.988 849.975, 1339.585 848.742 C 1340.607 846.629, 1348.347 831.623, 1364.984 799.500 C 1379.663 771.158, 1387.953 755.122, 1395.999 739.500 C 1419.406 694.053, 1418.201 696, 1422.927 696 C 1425.266 696, 1427.265 696.662, 1428.209 697.750 C 1429.044 698.712, 1432.763 705.350, 1436.474 712.500 C 1440.185 719.650, 1446.601 732.025, 1450.732 740 C 1454.863 747.975, 1460.612 759, 1463.509 764.500 C 1466.406 770, 1471.698 780.125, 1475.271 787 C 1484.256 804.293, 1490.908 816.997, 1496.214 827 C 1498.694 831.675, 1503.990 841.800, 1507.983 849.500 C 1511.976 857.200, 1517.612 868, 1520.508 873.500 C 1531.957 895.241, 1534.922 900.878, 1539.970 910.500 C 1542.856 916, 1546.165 922.300, 1547.324 924.500 C 1548.484 926.700, 1550.313 929.513, 1551.390 930.750 C 1553.344 932.995, 1553.423 933, 1585.019 933 C 1614.431 933, 1616.808 932.870, 1618.345 931.171 C 1619.255 930.165, 1620 928.521, 1620 927.517 C 1620 925.945, 1610.714 907.352, 1602.761 893 C 1601.389 890.525, 1597.677 883.550, 1594.511 877.500 C 1591.345 871.450, 1587.522 864.250, 1586.016 861.500 C 1584.510 858.750, 1581.249 852.675, 1578.769 848 C 1576.290 843.325, 1571.874 835, 1568.958 829.500 C 1566.041 824, 1562.906 818.150, 1561.991 816.500 C 1561.076 814.850, 1557.938 809, 1555.018 803.500 C 1552.098 798, 1547.898 790.125, 1545.683 786 C 1543.469 781.875, 1540.120 775.575, 1538.242 772 C 1531.845 759.828, 1524.748 746.511, 1521.985 741.500 C 1518.980 736.048, 1513.817 726.446, 1508.005 715.500 C 1501.671 703.571, 1496.362 693.693, 1493.761 689 C 1492.389 686.525, 1488.678 679.550, 1485.513 673.500 C 1482.348 667.450, 1478.740 660.700, 1477.495 658.500 C 1475.099 654.267, 1469.283 643.428, 1462.739 631 C 1460.567 626.875, 1457.324 620.800, 1455.531 617.500 C 1450.282 607.836, 1438.633 586.157, 1434.036 577.500 C 1431.699 573.100, 1428.857 568.487, 1427.719 567.250 C 1425.196 564.505, 1419.959 564.240, 1417.814 566.750 M 220.455 621.455 L 218 623.909 218 802.844 C 218 977.556, 218.045 981.834, 219.912 984.139 L 221.825 986.500 321.662 986.500 C 424.986 986.500, 423.724 986.543, 444 982.370 C 480.451 974.868, 506.827 956.043, 519.479 928.500 C 525.451 915.498, 530 893.149, 530 876.807 C 530 855.355, 522.481 831.390, 511.235 817 C 502.977 806.432, 489.489 795.710, 478.559 791.025 C 476.052 789.951, 474 788.848, 474 788.575 C 474 788.302, 477.356 785.597, 481.459 782.563 C 485.561 779.529, 491.400 774.037, 494.434 770.358 C 499.778 763.880, 508 748.864, 508 745.584 C 508 744.698, 508.434 743.191, 508.965 742.236 C 510.884 738.782, 513 724.577, 513 715.143 C 512.999 688.636, 503.089 664.789, 484.864 647.443 C 477.056 640.011, 471.211 635.965, 461.197 631.062 C 451.723 626.423, 449.460 625.572, 440 623.091 C 425.310 619.239, 418.255 619, 319.231 619 L 222.909 619 220.455 621.455 M 599.500 619.519 C 598.950 619.687, 597.307 620.087, 595.850 620.407 C 594.029 620.806, 592.856 621.976, 592.100 624.143 C 591.316 626.392, 591 677.853, 591 803.181 C 591 952.754, 591.212 979.572, 592.418 982.459 C 593.640 985.383, 594.441 985.944, 598.208 986.508 C 606.428 987.741, 795.930 986.446, 802.500 985.112 C 805.800 984.442, 811.425 983.239, 815 982.439 C 818.575 981.638, 822.423 980.987, 823.550 980.992 C 824.678 980.996, 826.028 980.626, 826.550 980.169 C 827.073 979.711, 829.525 978.769, 832 978.074 C 849.899 973.049, 869.475 959.899, 880.727 945.341 C 895.007 926.865, 902.002 900.347, 900.469 870.500 C 898.628 834.673, 882.584 808.278, 853.604 793.399 C 849.426 791.255, 846.007 789.168, 846.004 788.761 C 846.002 788.355, 849.141 785.738, 852.980 782.946 C 867.124 772.658, 875.910 759.261, 881.801 739 C 883.900 731.779, 884.121 702.240, 882.141 693.500 C 876.026 666.513, 857.593 643.506, 832.500 631.542 C 821.374 626.237, 822.238 626.539, 805.427 622.101 C 796.160 619.655, 770.197 618.997, 687 619.103 C 639.425 619.163, 600.050 619.350, 599.500 619.519 M 906 620.290 C 901.088 622.766, 901.157 622.958, 918.802 656 C 920.711 659.575, 924.291 666.325, 926.756 671 C 929.222 675.675, 932.760 682.313, 934.619 685.750 C 942.196 699.757, 951.094 716.389, 957.758 729 C 962.811 738.561, 967.080 746.583, 973.990 759.500 C 976.049 763.350, 979.874 770.550, 982.490 775.500 C 985.105 780.450, 988.319 786.435, 989.631 788.800 C 990.943 791.165, 995.008 798.815, 998.664 805.800 C 1002.320 812.785, 1005.638 818.950, 1006.037 819.500 C 1006.436 820.050, 1010.258 827.250, 1014.529 835.500 C 1018.800 843.750, 1022.634 850.950, 1023.049 851.500 C 1023.463 852.050, 1025.930 856.550, 1028.530 861.500 C 1036.212 876.125, 1042.028 887.072, 1045.797 894 C 1047.742 897.575, 1050.983 903.650, 1053 907.500 C 1055.017 911.350, 1058.253 917.425, 1060.192 921 C 1062.131 924.575, 1066.318 932.450, 1069.495 938.500 C 1072.673 944.550, 1075.603 949.950, 1076.006 950.500 C 1076.410 951.050, 1079.665 957.125, 1083.239 964 C 1095.092 986.802, 1094.661 986.227, 1099.610 985.817 C 1104.127 985.443, 1105.538 983.611, 1114.490 966.500 C 1117.656 960.450, 1121.474 953.250, 1122.975 950.500 C 1124.476 947.750, 1128.311 940.550, 1131.496 934.500 C 1134.681 928.450, 1139.022 920.422, 1141.143 916.660 C 1143.265 912.899, 1145 909.629, 1145 909.395 C 1145 909.160, 1148.092 903.238, 1151.871 896.234 C 1159.513 882.071, 1163.563 874.495, 1175.253 852.500 C 1179.638 844.250, 1184.457 835.250, 1185.963 832.500 C 1187.470 829.750, 1191.192 822.775, 1194.235 817 C 1201.662 802.904, 1207.121 792.642, 1210.725 786 C 1212.366 782.975, 1216.084 776, 1218.986 770.500 C 1221.889 765, 1225.503 758.250, 1227.018 755.500 C 1228.533 752.750, 1231.779 746.675, 1234.232 742 C 1239.842 731.305, 1245.818 720.179, 1252.495 708 C 1255.359 702.775, 1260.308 693.550, 1263.491 687.500 C 1272.392 670.585, 1277.093 661.787, 1278.988 658.500 C 1279.939 656.850, 1283.560 650.100, 1287.034 643.500 C 1290.509 636.900, 1293.945 630.375, 1294.670 629 C 1296.661 625.223, 1296.284 622.232, 1293.593 620.469 C 1291.505 619.101, 1287.055 618.933, 1259.964 619.196 L 1228.742 619.500 1227.121 621.880 C 1226.229 623.189, 1222.774 629.489, 1219.442 635.880 C 1216.111 642.271, 1209.635 654.700, 1205.052 663.500 C 1200.469 672.300, 1194.593 683.550, 1191.995 688.500 C 1189.396 693.450, 1184 703.800, 1180.003 711.500 C 1176.005 719.200, 1171.047 728.650, 1168.985 732.500 C 1165.376 739.240, 1161.029 747.548, 1146.485 775.500 C 1142.765 782.650, 1137.699 792.325, 1135.226 797 C 1132.754 801.675, 1127.925 810.900, 1124.497 817.500 C 1103.972 857.013, 1105.392 854.595, 1101.852 856.061 C 1099.773 856.922, 1098.525 856.871, 1096.445 855.840 C 1093.632 854.446, 1092.854 853.141, 1079.828 828 C 1068.345 805.834, 1059.150 788.236, 1055.013 780.500 C 1052.954 776.650, 1047.886 766.975, 1043.751 759 C 1033.444 739.119, 1026.210 725.245, 1020.287 714 C 1010.324 695.086, 994.131 664.198, 986.997 650.500 C 971.729 621.183, 971.673 621.091, 968.601 620.015 C 964.161 618.460, 909.151 618.702, 906 620.290 M 289.500 671.767 C 282.734 672.217, 281.094 672.917, 279.477 676.045 C 278.123 678.663, 277.956 684.563, 278.209 720.826 C 278.475 758.953, 278.656 762.829, 280.287 765.317 L 282.074 768.043 346.287 767.698 C 388.879 767.470, 412.294 766.973, 415.829 766.225 C 424.438 764.401, 435.251 758.485, 440.906 752.506 C 449.258 743.675, 452.296 734.950, 452.203 720.058 C 452.032 692.463, 437.870 677.124, 408.818 673.065 C 401.476 672.040, 301.698 670.954, 289.500 671.767 M 657.854 672.706 C 656.399 672.930, 654.374 674.034, 653.354 675.160 C 651.619 677.077, 651.482 679.959, 651.219 720.013 L 650.939 762.817 653.384 765.659 L 655.829 768.500 718.165 768.500 C 775.711 768.500, 781.037 768.357, 787.486 766.644 C 805.975 761.732, 816.241 753.169, 821.826 738 C 824.330 731.198, 824.154 709.261, 821.541 702.500 C 814.617 684.585, 800.326 675.505, 775.144 673.021 C 765.480 672.068, 663.785 671.795, 657.854 672.706 M 284.188 821.722 C 282.917 821.961, 281.006 823.583, 279.942 825.328 C 278.098 828.352, 278.007 830.826, 278.004 878.194 L 278 927.888 280.415 930.694 L 282.830 933.500 348.665 933.496 C 417.510 933.491, 419.908 933.364, 434.671 928.957 C 453.054 923.468, 463.331 912.916, 467.572 895.175 C 469.324 887.846, 469.324 867.153, 467.572 859.823 C 463.172 841.421, 451.589 830.597, 430.500 825.179 C 417.781 821.912, 411.865 821.641, 349.500 821.466 C 314.850 821.369, 285.460 821.484, 284.188 821.722 M 655.229 822.669 C 654.530 822.951, 653.292 824.468, 652.479 826.041 C 651.232 828.452, 651 836.669, 651 878.395 L 651 927.888 653.415 930.694 L 655.830 933.500 722.165 933.466 C 793.789 933.429, 794.598 933.378, 810.500 927.816 C 825.167 922.687, 834.804 912.142, 839.120 896.500 C 841.197 888.973, 840.843 865.172, 838.540 857.551 C 833.857 842.054, 824.133 832.512, 807.500 827.094 C 793.338 822.482, 785.854 822.060, 719 822.111 C 684.625 822.137, 655.928 822.388, 655.229 822.669 M 1240 944.094 C 1240 946.332, 1241.285 946.566, 1242.899 944.622 C 1243.797 943.540, 1243.609 943.131, 1242.021 942.716 C 1240.515 942.322, 1240 942.673, 1240 944.094 M 1234.409 945.376 C 1233.562 947.584, 1234.689 948.711, 1236.217 947.183 C 1237.119 946.281, 1237.122 945.722, 1236.233 944.833 C 1235.343 943.943, 1234.909 944.072, 1234.409 945.376 M 1228 951.711 C 1228 952.285, 1228.787 953.373, 1229.750 954.128 C 1231.369 955.397, 1231.390 955.350, 1230.033 953.500 C 1229.226 952.400, 1228.439 951.313, 1228.283 951.083 C 1228.127 950.854, 1228 951.137, 1228 951.711 M 1221.079 957.583 C 1221.127 958.748, 1221.364 958.985, 1221.683 958.188 C 1221.972 957.466, 1221.936 956.603, 1221.604 956.271 C 1221.272 955.939, 1221.036 956.529, 1221.079 957.583 M 1233.813 958.683 C 1234.534 958.972, 1235.397 958.936, 1235.729 958.604 C 1236.061 958.272, 1235.471 958.036, 1234.417 958.079 C 1233.252 958.127, 1233.015 958.364, 1233.813 958.683 M 1215.658 979.675 C 1214.329 981.004, 1215.055 982.571, 1217 982.571 C 1218.100 982.571, 1219 982.273, 1219 981.908 C 1219 980.760, 1216.347 978.987, 1215.658 979.675 M 1219 985 C 1219 985.550, 1219.675 986, 1220.500 986 C 1221.325 986, 1222 985.550, 1222 985 C 1222 984.450, 1221.325 984, 1220.500 984 C 1219.675 984, 1219 984.450, 1219 985 M 1197.667 1003.667 C 1197.300 1004.033, 1197 1005.190, 1197 1006.238 C 1197 1007.931, 1197.167 1007.976, 1198.500 1006.643 C 1199.325 1005.818, 1200 1004.661, 1200 1004.071 C 1200 1002.874, 1198.687 1002.646, 1197.667 1003.667 M 1198.738 1021.614 C 1198.101 1022.646, 1199.580 1025.784, 1200.320 1024.971 C 1200.556 1024.712, 1200.433 1023.630, 1200.047 1022.566 C 1199.661 1021.503, 1199.072 1021.074, 1198.738 1021.614 M 1184.180 1035.250 C 1184.356 1036.487, 1184.950 1037.500, 1185.500 1037.500 C 1186.050 1037.500, 1186.644 1036.487, 1186.820 1035.250 C 1187.039 1033.702, 1186.628 1033, 1185.500 1033 C 1184.372 1033, 1183.961 1033.702, 1184.180 1035.250 M 1134.079 1111.583 C 1134.127 1112.748, 1134.364 1112.985, 1134.683 1112.188 C 1134.972 1111.466, 1134.936 1110.603, 1134.604 1110.271 C 1134.272 1109.939, 1134.036 1110.529, 1134.079 1111.583 M 1129.079 1119.583 C 1129.127 1120.748, 1129.364 1120.985, 1129.683 1120.188 C 1129.972 1119.466, 1129.936 1118.603, 1129.604 1118.271 C 1129.272 1117.939, 1129.036 1118.529, 1129.079 1119.583" stroke="none" fill="black" fill-rule="evenodd"/>
</svg>